<svg xmlns="http://www.w3.org/2000/svg" xmlns:xlink="http://www.w3.org/1999/xlink" width="60" height="60" viewBox="0 0 60 60">
    <defs>
        <filter id="l6x939x8ja">
            <feColorMatrix in="SourceGraphic" values="0 0 0 0 0.600000 0 0 0 0 0.588235 0 0 0 0 0.588235 0 0 0 1.000000 0"/>
        </filter>
        <path id="vbcyo9ax7b" d="M0 0L39.404 0 39.404 37.866 0 37.866z"/>
    </defs>
    <g fill="none" fill-rule="evenodd">
        <g>
            <g>
                <g filter="url(#l6x939x8ja)" transform="translate(-150 -191) translate(20 191)">
                    <g>
                        <g transform="translate(130) translate(10 11)">
                            <mask id="8yp5lakckc" fill="#fff">
                                <use xlink:href="#vbcyo9ax7b"/>
                            </mask>
                            <path fill="#000" d="M21.455 16.917l.281-8.477c.014-.587-.172-1.066-.552-1.435-.38-.368-.879-.553-1.49-.553-.628 0-1.128.185-1.503.553-.375.37-.549.842-.523 1.416l.262 8.496c.037 1.163.63 1.744 1.781 1.744 1.125 0 1.707-.58 1.744-1.744m-.14 7.371c.443-.388.665-.893.665-1.519 0-.613-.218-1.116-.656-1.51-.437-.394-.974-.59-1.613-.59-.637 0-1.178.2-1.62.6-.447.4-.667.9-.667 1.5 0 .613.22 1.116.666 1.51.443.394.984.59 1.621.59.625 0 1.16-.193 1.603-.58M9.377 37.331c-.313-.356-.469-.835-.469-1.435V30.76h-.637c-1.689 0-3.148-.33-4.38-.994-1.23-.663-2.188-1.625-2.87-2.889-.68-1.263-1.02-2.775-1.02-4.538V8.46c0-1.775.333-3.295 1.003-4.558.668-1.262 1.631-2.228 2.887-2.897C5.148.335 6.664 0 8.44 0h22.526c1.787 0 3.31.338 4.566 1.013 1.256.675 2.217 1.641 2.88 2.898.661 1.256.993 2.773.993 4.548v13.88c0 1.762-.332 3.274-.994 4.537-.662 1.264-1.623 2.23-2.879 2.897-1.256.67-2.779.998-4.566.986H19.523l-6.62 5.926c-.45.413-.84.712-1.173.9-.33.187-.689.281-1.078.281-.537 0-.963-.178-1.275-.534" mask="url(#8yp5lakckc)"/>
                        </g>
                    </g>
                </g>
            </g>
        </g>
    </g>
</svg>
