<svg xmlns="http://www.w3.org/2000/svg" width="60" height="60" viewBox="0 0 60 60">
    <defs>
        <filter id="m8ffkhieka">
            <feColorMatrix in="SourceGraphic" values="0 0 0 0 0.600000 0 0 0 0 0.588235 0 0 0 0 0.588235 0 0 0 1.000000 0"/>
        </filter>
    </defs>
    <g fill="none" fill-rule="evenodd" stroke-linecap="round">
        <g>
            <g>
                <g filter="url(#m8ffkhieka)" transform="translate(-150 -310) translate(20 310)">
                    <g>
                        <g stroke="#383535">
                            <path stroke-linejoin="round" stroke-width="3" d="M28.155 44.169c2.127 0 4.016 1.24 4.81 3.16.05.12.165.199.294.199h.295c.833 0 1.511-.66 1.511-1.47V1.97c0-.811-.678-1.47-1.51-1.47h-.296c-.129 0-.244.078-.294.199-.794 1.92-2.683 3.16-4.81 3.16s-4.015-1.24-4.81-3.16c-.05-.121-.165-.2-.294-.2h-.157c-.129 0-.245.079-.294.2-.794 1.92-2.683 3.16-4.81 3.16-2.128 0-4.015-1.24-4.81-3.16-.05-.121-.166-.2-.295-.2h-.157c-.128 0-.244.079-.294.2-.794 1.92-2.682 3.16-4.81 3.16-2.127 0-4.015-1.24-4.81-3.16-.049-.121-.165-.2-.293-.2h-.295C1.192.5.514 1.16.514 1.97v44.09c0 .81.678 1.469 1.512 1.469h.295c.128 0 .244-.078.294-.2.794-1.92 2.682-3.16 4.81-3.16 2.127 0 4.015 1.24 4.809 3.16.05.122.166.2.294.2h.157c.129 0 .245-.078.296-.2.794-1.92 2.681-3.16 4.81-3.16 2.126 0 4.015 1.24 4.809 3.16.05.122.165.2.294.2h.157c.129 0 .244-.078.295-.2.794-1.92 2.682-3.16 4.81-3.16z" transform="translate(130) translate(12 6)"/>
                            <path stroke-width="2" d="M6.996 29.5L28.584 29.5M6.996 35.786L28.584 35.786" transform="translate(130) translate(12 6)"/>
                        </g>
                    </g>
                </g>
            </g>
        </g>
    </g>
</svg>
