<svg xmlns="http://www.w3.org/2000/svg" xmlns:xlink="http://www.w3.org/1999/xlink" width="60" height="60" viewBox="0 0 60 60">
    <defs>
        <filter id="e9nxuyh7pa">
            <feColorMatrix in="SourceGraphic" values="0 0 0 0 0.600000 0 0 0 0 0.588235 0 0 0 0 0.588235 0 0 0 1.000000 0"/>
        </filter>
        <path id="4msqdrn0nb" d="M0 0L39.613 0 39.613 32.016 0 32.016z"/>
    </defs>
    <g fill="none" fill-rule="evenodd">
        <g>
            <g>
                <g filter="url(#e9nxuyh7pa)" transform="translate(-150 -191) translate(20 191)">
                    <g>
                        <g transform="translate(130) translate(10 13)">
                            <mask id="i2z6b04rsc" fill="#fff">
                                <use xlink:href="#4msqdrn0nb"/>
                            </mask>
                            <path fill="#383535" d="M30.56 10.719c-1.854-1.044-3.833-1.791-5.935-2.241l.056-5.514c2 .362 3.915.935 5.738 1.716 1.827.78 3.504 1.72 5.037 2.813 1.532 1.094 2.854 2.29 3.967 3.592.137.175.2.372.188.59-.014.22-.107.416-.28.59l-2.347 2.364c-.199.213-.428.322-.684.328-.258.007-.471-.084-.647-.271-1.538-1.601-3.236-2.923-5.092-3.967zm-3.89 9.443c-.714-.488-1.477-.893-2.29-1.22l.189-5.831c1.664.437 3.189 1.087 4.576 1.95 1.389.862 2.55 1.838 3.488 2.926.15.174.216.372.197.59-.017.219-.11.41-.271.573l-2.644 2.625c-.226.213-.459.319-.694.319-.238 0-.457-.1-.657-.3-.55-.6-1.181-1.144-1.895-1.632zM18.19 22.14c-.386-.406-.593-.972-.616-1.697-.014-1.088-.032-2.242-.058-3.46-.024-1.22-.046-2.46-.066-3.724l-.056-3.788-.055-3.667c-.02-1.182-.035-2.297-.047-3.348 0-.7.236-1.284.71-1.753C18.48.234 19.085 0 19.825 0c.738 0 1.34.235 1.81.704.468.469.702 1.053.702 1.753L22.3 5.805c-.011 1.182-.027 2.404-.047 3.667-.017 1.263-.04 2.525-.064 3.788-.025 1.264-.046 2.504-.057 3.724-.012 1.218-.026 2.372-.038 3.46-.024.725-.233 1.29-.628 1.697-.395.406-.933.609-1.622.609-.712 0-1.262-.203-1.651-.61zm-.008 9.443c-.494-.288-.89-.675-1.19-1.163-.301-.487-.452-1.025-.452-1.613 0-.587.15-1.122.451-1.604.3-.48.697-.862 1.191-1.143.494-.281 1.041-.422 1.642-.422.599 0 1.146.14 1.64.422.494.28.889.663 1.181 1.143.293.482.441 1.017.441 1.604 0 .588-.148 1.126-.44 1.613-.293.488-.688.875-1.182 1.163-.494.287-1.041.432-1.64.432-.6 0-1.148-.145-1.642-.432zM7.07 19.15c-.176-.175-.27-.367-.28-.573-.013-.206.061-.403.223-.59.915-1.1 2.066-2.085 3.451-2.955 1.39-.868 2.926-1.515 4.614-1.94l.188 5.832c-.8.3-1.557.69-2.268 1.173-.712.48-1.337 1.02-1.877 1.622-.2.225-.428.347-.684.365-.255.02-.49-.071-.702-.271L7.07 19.15zM.261 12.266C.087 12.09 0 11.898 0 11.685c0-.212.07-.412.207-.6 1.089-1.313 2.397-2.52 3.929-3.62 1.533-1.1 3.215-2.038 5.045-2.813 1.832-.775 3.748-1.351 5.75-1.726l.055 5.552c-2.088.437-4.06 1.176-5.916 2.213-1.859 1.038-3.55 2.363-5.075 3.976-.188.2-.413.307-.674.319-.263.012-.488-.087-.675-.3L.26 12.266z" mask="url(#i2z6b04rsc)"/>
                        </g>
                    </g>
                </g>
            </g>
        </g>
    </g>
</svg>
