<svg xmlns="http://www.w3.org/2000/svg" xmlns:xlink="http://www.w3.org/1999/xlink" width="60" height="60" viewBox="0 0 60 60">
    <defs>
        <path id="zof1tgu1vb" d="M4.413 5.262c0 2.703 2.185 4.884 4.891 4.884s4.874-2.181 4.874-4.884C14.178 2.561 12.01.38 9.304.38c-2.706 0-4.891 2.181-4.891 4.882zM.751 20.434v2.834c0 .842.683 1.525 1.526 1.525h14.038c.842 0 1.525-.683 1.525-1.525v-2.834c0-4.063-5.7-6.103-8.544-6.103-2.844 0-8.545 2.04-8.545 6.103z"/>
        <path id="ygacseq8vd" d="M.62 3.925c0 2.025 1.636 3.662 3.666 3.662 2.029 0 3.657-1.637 3.657-3.662S6.315.262 4.286.262C2.256.262.62 1.9.62 3.925z"/>
        <path id="j2wrxb030f" d="M.062.417s1.62 2.898 1.62 5.306v4.07H5.86c.842 0 1.525-.683 1.525-1.525V5.723C7.385 1.934 2.947.028.73.028.456.028.062.417.062.417z"/>
        <path id="5cvbtcbqch" d="M.648 3.924c0 2.028 1.626 3.663 3.656 3.663 2.029 0 3.668-1.635 3.668-3.663 0-2.026-1.639-3.662-3.668-3.662C2.274.262.648 1.898.648 3.924z"/>
        <path id="qr5eu1nbtj" d="M.207 5.723v2.545c0 .842.683 1.525 1.525 1.525h4.177v-4.07c0-2.408 1.622-5.306 1.622-5.306S7.135.028 6.859.028C4.646.028.207 1.932.207 5.723z"/>
        <filter id="v0z1izrzca">
            <feColorMatrix in="SourceGraphic" values="0 0 0 0 0.600000 0 0 0 0 0.588235 0 0 0 0 0.588235 0 0 0 1.000000 0"/>
        </filter>
    </defs>
    <g fill="none" fill-rule="evenodd">
        <g>
            <g filter="url(#v0z1izrzca)" transform="translate(-150 -526)">
                <g>
                    <g>
                        <g fill="#383535">
                            <path d="M42 .817H8.592c-4.258 0-7.71 3.451-7.71 7.71v33.407c0 4.258 3.452 7.71 7.71 7.71H42c4.258 0 7.709-3.452 7.709-7.71V8.526c0-4.258-3.451-7.709-7.71-7.709m0 3.052c2.569 0 4.659 2.09 4.659 4.657v33.408c0 2.57-2.09 4.657-4.658 4.657H8.592c-2.568 0-4.657-2.088-4.657-4.657V8.526c0-2.568 2.089-4.657 4.657-4.657H42" transform="translate(150 526) translate(5 4) translate(0 .183)"/>
                            <path d="M25.296 28.331c-2.844 0-8.544 2.04-8.544 6.103v2.834c0 .842.683 1.525 1.525 1.525h14.038c.843 0 1.526-.683 1.526-1.525v-2.834c0-4.063-5.701-6.103-8.545-6.103m.008-4.186c2.707 0 4.875-2.18 4.875-4.882 0-2.702-2.168-4.883-4.875-4.883-2.706 0-4.89 2.181-4.89 4.883s2.184 4.882 4.89 4.882" transform="translate(150 526) translate(5 4) translate(0 .183)"/>
                        </g>
                        <g transform="translate(150 526) translate(5 4) translate(16 14.183)">
                            <mask id="5vq136nmtc" fill="#fff">
                                <use xlink:href="#zof1tgu1vb"/>
                            </mask>
                            <path fill="#383535" d="M-11.455 37L30.047 37 30.047 -11.826 -11.455 -11.826z" mask="url(#5vq136nmtc)"/>
                        </g>
                        <path fill="#383535" d="M36.285 26.77c2.03 0 3.659-1.637 3.659-3.661 0-2.026-1.629-3.663-3.659-3.663-2.028 0-3.665 1.637-3.665 3.663 0 2.024 1.637 3.66 3.666 3.66" transform="translate(150 526) translate(5 4)"/>
                        <g transform="translate(150 526) translate(5 4) translate(32 19.183)">
                            <mask id="auc09vhgde" fill="#fff">
                                <use xlink:href="#ygacseq8vd"/>
                            </mask>
                            <path fill="#383535" d="M-11.587 19.793L20.15 19.793 20.15 -11.943 -11.587 -11.943z" mask="url(#auc09vhgde)"/>
                        </g>
                        <path fill="#383535" d="M35.73 29.211c-.274 0-.668.39-.668.39s1.62 2.897 1.62 5.305v4.07h4.177c.843 0 1.526-.683 1.526-1.526v-2.544c0-3.79-4.438-5.695-6.654-5.695" transform="translate(150 526) translate(5 4)"/>
                        <g transform="translate(150 526) translate(5 4) translate(35 29.183)">
                            <mask id="tydsbssyng" fill="#fff">
                                <use xlink:href="#j2wrxb030f"/>
                            </mask>
                            <path fill="#383535" d="M-12.145 22L19.592 22 19.592 -12.179 -12.145 -12.179z" mask="url(#tydsbssyng)"/>
                        </g>
                        <path fill="#383535" d="M17.972 23.108c0-2.027-1.639-3.662-3.667-3.662-2.031 0-3.657 1.635-3.657 3.662s1.626 3.662 3.657 3.662c2.028 0 3.667-1.635 3.667-3.662" transform="translate(150 526) translate(5 4)"/>
                        <g transform="translate(150 526) translate(5 4) translate(10 19.183)">
                            <mask id="9cio1ccdei" fill="#fff">
                                <use xlink:href="#5cvbtcbqch"/>
                            </mask>
                            <path fill="#383535" d="M-11.559 19.793L20.178 19.793 20.178 -11.943 -11.559 -11.943z" mask="url(#9cio1ccdei)"/>
                        </g>
                        <path fill="#383535" d="M8.207 34.906v2.544c0 .843.683 1.525 1.525 1.525h4.177v-4.069c0-2.408 1.622-5.307 1.622-5.307s-.396-.388-.673-.388c-2.213 0-6.651 1.903-6.651 5.695" transform="translate(150 526) translate(5 4)"/>
                        <g transform="translate(150 526) translate(5 4) translate(8 29.183)">
                            <mask id="xsviy95g9k" fill="#fff">
                                <use xlink:href="#qr5eu1nbtj"/>
                            </mask>
                            <path fill="#383535" d="M-12 22L19.737 22 19.737 -12.179 -12 -12.179z" mask="url(#xsviy95g9k)"/>
                        </g>
                    </g>
                </g>
            </g>
        </g>
    </g>
</svg>
