<svg xmlns="http://www.w3.org/2000/svg" xmlns:xlink="http://www.w3.org/1999/xlink" width="60" height="60" viewBox="0 0 60 60">
    <defs>
        <path id="kireus1rgb" d="M0 0.762L44.925 0.762 44.925 46 0 46z"/>
        <path id="cjqmejwz2d" d="M13.098.658L2.231 12.918.964 16.807c-.038.121-.058.239-.061.356v.055c.016.645.548 1.177 1.186 1.177.123 0 .25-.021.377-.063l3.664-1.455L17.081 4.523c.218-.242.33-.545.338-.851v-.07c-.008-.326-.136-.65-.381-.898L14.979.613c-.254-.258-.587-.386-.92-.386-.351 0-.704.144-.961.431zm-.613 3.401l1.593-1.798 1.373 1.393-1.593 1.799-1.373-1.394zm-8.142 9.184l6.947-7.835L12.663 6.8l-6.945 7.835c-.912-.304-1.255-.979-1.375-1.392z"/>
        <filter id="xy96c8511a">
            <feColorMatrix in="SourceGraphic" values="0 0 0 0 0.600000 0 0 0 0 0.588235 0 0 0 0 0.588235 0 0 0 1.000000 0"/>
        </filter>
    </defs>
    <g fill="none" fill-rule="evenodd">
        <g>
            <g>
                <g filter="url(#xy96c8511a)" transform="translate(-150 -164) translate(20 164)">
                    <g>
                        <g>
                            <g transform="translate(130) translate(7 6) translate(0 .238)">
                                <mask id="n1t33u1msc" fill="#fff">
                                    <use xlink:href="#kireus1rgb"/>
                                </mask>
                                <path fill="#383535" d="M11.62 39.147c.736 0 1.422.17 2.037.505 2.819 1.532 6.01 2.36 9.256 2.309 1.08-.01 2.169-.106 3.238-.288 7.888-1.335 14.265-7.778 15.506-15.667.888-5.645-.707-11.321-4.378-15.576-3.645-4.224-8.921-6.64-14.494-6.64h-.132c-1.084.008-2.181.106-3.262.292-7.886 1.344-14.252 7.795-15.485 15.684-.684 4.37.074 8.672 2.19 12.436 1.317 2.34.173 4.929-1.723 9.214l-.155.352.842-.385c3.205-1.462 4.949-2.225 6.517-2.236h.043zM1.586 46c-.65 0-1.297-.523-1.506-1.136-.104-.31-.106-.644-.006-.953.324-1.004.965-2.447 1.53-3.722 1.549-3.502 2.399-5.532 1.852-6.504C1.003 29.324.124 24.346.914 19.299 2.344 10.142 9.73 2.657 18.879 1.098c1.24-.215 2.506-.33 3.754-.336h.152c6.455 0 12.566 2.796 16.788 7.69 4.253 4.93 6.102 11.499 5.075 18.023-1.44 9.157-8.838 16.634-17.991 18.186-1.227.208-2.48.319-3.722.328-3.767-.043-7.456-.9-10.726-2.677-.17-.093-.38-.173-.608-.136-.997.007-2.983.913-5.283 1.962-1.533.702-3.12 1.426-4.276 1.79-.148.048-.302.073-.456.073z" mask="url(#n1t33u1msc)"/>
                            </g>
                            <g transform="translate(130) translate(7 6) translate(13 14.238)">
                                <mask id="80vj0e6w4e" fill="#fff">
                                    <use xlink:href="#cjqmejwz2d"/>
                                </mask>
                                <path fill="#E73331" d="M-7.355 26.653L25.678 26.653 25.678 -8.032 -7.355 -8.032z" mask="url(#80vj0e6w4e)"/>
                            </g>
                        </g>
                    </g>
                </g>
            </g>
        </g>
    </g>
</svg>
