<svg xmlns="http://www.w3.org/2000/svg" width="68" height="13" viewBox="0 0 68 13">
    <defs>
        <filter id="pk9hwv2jka">
            <feColorMatrix in="SourceGraphic" values="0 0 0 0 1.000000 0 0 0 0 1.000000 0 0 0 0 1.000000 0 0 0 1.000000 0"/>
        </filter>
        <filter id="t7pmck70db" width="282.4%" height="1053.8%" x="-91.2%" y="-476.9%" filterUnits="objectBoundingBox">
            <feOffset dy="2" in="SourceAlpha" result="shadowOffsetOuter1"/>
            <feGaussianBlur in="shadowOffsetOuter1" result="shadowBlurOuter1" stdDeviation="15"/>
            <feColorMatrix in="shadowBlurOuter1" result="shadowMatrixOuter1" values="0 0 0 0 0.926347373 0 0 0 0 0.671136701 0 0 0 0 0.668301027 0 0 0 0.4 0"/>
            <feMerge>
                <feMergeNode in="shadowMatrixOuter1"/>
                <feMergeNode in="SourceGraphic"/>
            </feMerge>
        </filter>
    </defs>
    <g fill="none" fill-rule="evenodd">
        <g>
            <g filter="url(#pk9hwv2jka)" transform="translate(-266 -109)">
                <g filter="url(#t7pmck70db)" transform="translate(266 109)">
                    <g fill="#080606">
                        <g>
                            <path d="M10.349.265L10.173.353 6.129 5.293 2.066.353 1.891.265.087.265 0 .353 0 12.527.087 12.615 1.944 12.615 2.031 12.527 2.031 3.388 6.041 8.24 6.216 8.24 10.209 3.388 10.209 12.527 10.296 12.615 12.17 12.615 12.257 12.527 12.257.353 12.17.265zM18.036.364l.088.088v6.44c0 2.593 1.523 3.935 3.396 3.935 1.857 0 3.38-1.342 3.38-3.935V.452l.088-.088h1.873l.088.088v6.793c0 3.617-2.452 5.734-5.429 5.734-2.976 0-5.428-2.117-5.428-5.734V.452l.088-.088h1.856zM32.564.265L32.737.351 39.377 9.076 39.377.351 39.463.265 41.309.265 41.395.351 41.395 12.343 41.309 12.43 39.377 12.43 39.204 12.343 32.564 3.619 32.564 12.343 32.478 12.43 30.65 12.43 30.564 12.343 30.564.351 30.65.265zM53.86.265L53.948.353 53.948 2.241 53.86 2.329 50.061 2.329 50.061 12.48 49.973 12.568 48.117 12.568 48.029 12.48 48.029 2.329 44.23 2.329 44.142 2.241 44.142.353 44.23.265zM61.466 10.728c-2.31 0-4.167-1.888-4.167-4.288 0-2.4 1.856-4.288 4.167-4.288 2.312 0 4.168 1.889 4.168 4.288 0 2.4-1.856 4.288-4.168 4.288m0-10.728c-3.589 0-6.478 2.858-6.478 6.44 0 3.582 2.889 6.44 6.478 6.44 3.573 0 6.48-2.858 6.48-6.44 0-3.582-2.907-6.44-6.48-6.44"/>
                        </g>
                    </g>
                    <path d="M0 0H68V13H0z"/>
                </g>
            </g>
        </g>
    </g>
</svg>
