<?xml version="1.0" encoding="UTF-8"?>
<svg width="50px" height="50px" viewBox="0 0 50 50" version="1.1" xmlns="http://www.w3.org/2000/svg" xmlns:xlink="http://www.w3.org/1999/xlink">
    <title>C4A8E49E-56B1-47C5-8143-8AF0F7A4120E</title>
    <defs>
        <filter id="filter-1">
            <feColorMatrix in="SourceGraphic" type="matrix" values="0 0 0 0 0.725490 0 0 0 0 0.713725 0 0 0 0 0.713725 0 0 0 1.000000 0"></feColorMatrix>
        </filter>
        <path d="M11.003,3.34 C11.003,4.733 12.182,5.856 13.643,5.856 L13.643,5.856 C15.106,5.856 16.277,4.733 16.277,3.34 L16.277,3.34 C16.277,1.946 15.106,0.824 13.643,0.824 L13.643,0.824 C12.182,0.824 11.003,1.946 11.003,3.34 L11.003,3.34 Z M3.956,3.34 C3.956,4.733 5.137,5.856 6.597,5.856 L6.597,5.856 C8.061,5.856 9.232,4.733 9.232,3.34 L9.232,3.34 C9.232,1.946 8.061,0.824 6.597,0.824 L6.597,0.824 C5.137,0.824 3.956,1.946 3.956,3.34 L3.956,3.34 Z M12.789,7.575 C12.789,7.575 14.526,9.228 14.526,10.469 L14.526,10.469 L14.526,11.834 C14.526,12.239 14.886,12.568 15.332,12.568 L15.332,12.568 L19.002,12.568 C19.448,12.568 19.809,12.239 19.809,11.834 L19.809,11.834 L19.809,10.469 C19.809,8.516 15.696,7.535 13.643,7.535 L13.643,7.535 C13.388,7.535 12.789,7.575 12.789,7.575 L12.789,7.575 Z M0.432,10.469 L0.432,11.834 C0.432,12.239 0.794,12.568 1.24,12.568 L1.24,12.568 L11.957,12.568 C12.401,12.568 12.764,12.239 12.764,11.834 L12.764,11.834 L12.764,10.469 C12.764,8.516 8.65,7.535 6.597,7.535 L6.597,7.535 C4.543,7.535 0.432,8.516 0.432,10.469 L0.432,10.469 Z" id="path-2"></path>
        <path d="M17.121,0.924 L17.443185,0.926999885 C26.6585028,1.09873999 34.076,8.62263218 34.076,17.879 L34.076,17.879 L34.0730001,18.201185 C33.90126,27.4165028 26.3773678,34.834 17.121,34.834 L17.121,34.834 L16.798815,34.8310001 C7.58349716,34.65926 0.166,27.1353678 0.166,17.879 C0.166,8.515 7.757,0.924 17.121,0.924" id="path-4"></path>
    </defs>
    <g id="my" stroke="none" stroke-width="1" fill="none" fill-rule="evenodd">
        <g id="my(리더/파트너)_모임관리" transform="translate(-71.000000, -392.000000)">
            <g id="Group-9-Copy" transform="translate(20.000000, 374.000000)">
                <g id="ic/tap/bottom_socialing_48px" transform="translate(51.000000, 18.000000)">
                    <g filter="url(#filter-1)" id="Group">
                        <g transform="translate(8.000000, 8.000000)">
                            <path d="M18.0027,14.3393 C18.0027,15.7333 19.1817,16.8563 20.6427,16.8563 C22.1057,16.8563 23.2767,15.7333 23.2767,14.3393 C23.2767,12.9463 22.1057,11.8233 20.6427,11.8233 C19.1817,11.8233 18.0027,12.9463 18.0027,14.3393 M10.9557,14.3393 C10.9557,15.7333 12.1367,16.8563 13.5977,16.8563 C15.0607,16.8563 16.2317,15.7333 16.2317,14.3393 C16.2317,12.9463 15.0607,11.8233 13.5977,11.8233 C12.1367,11.8233 10.9557,12.9463 10.9557,14.3393 M19.7887,18.5743 C19.7887,18.5743 21.5257,20.2283 21.5257,21.4693 L21.5257,22.8333 C21.5257,23.2383 21.8857,23.5683 22.3317,23.5683 L26.0027,23.5683 C26.4477,23.5683 26.8097,23.2383 26.8097,22.8333 L26.8097,21.4693 C26.8097,19.5163 22.6967,18.5353 20.6427,18.5353 C20.3877,18.5353 19.7887,18.5743 19.7887,18.5743 M7.4327,21.4693 L7.4327,22.8333 C7.4327,23.2383 7.7947,23.5683 8.2397,23.5683 L18.9567,23.5683 C19.4007,23.5683 19.7647,23.2383 19.7647,22.8333 L19.7647,21.4693 C19.7647,19.5163 15.6497,18.5353 13.5977,18.5353 C11.5437,18.5353 7.4327,19.5163 7.4327,21.4693" id="Fill-1" fill="#383535"></path>
                            <g id="Group-7" transform="translate(7.000000, 11.000000)">
                                <mask id="mask-3" fill="white">
                                    <use xlink:href="#path-2"></use>
                                </mask>
                                <g id="Clip-4"></g>
                                <polygon id="Fill-3" fill="#383535" mask="url(#mask-3)" points="-8.045 20.201 28.287 20.201 28.287 -7.653 -8.045 -7.653"></polygon>
                                <polygon id="Fill-5" fill="#383535" mask="url(#mask-3)" points="0.432 12.934 19.809 12.934 19.809 0.824 0.432 0.824"></polygon>
                                <polygon id="Fill-6" fill="#383535" mask="url(#mask-3)" points="-13.696 25.962 33.939 25.962 33.939 -12.572 -13.696 -12.572"></polygon>
                            </g>
                            <g id="Group-10">
                                <mask id="mask-5" fill="white">
                                    <use xlink:href="#path-4"></use>
                                </mask>
                                <g id="Clip-9"></g>
                                <path d="M17.1209,0.9243 C7.7569,0.9243 0.1659,8.5153 0.1659,17.8793 C0.1659,27.2423 7.7569,34.8343 17.1209,34.8343 C26.4849,34.8343 34.0759,27.2423 34.0759,17.8793 C34.0759,8.5153 26.4849,0.9243 17.1209,0.9243 M17.1209,2.9243 C25.3679,2.9243 32.0759,9.6323 32.0759,17.8793 C32.0759,26.1253 25.3679,32.8343 17.1209,32.8343 C8.8749,32.8343 2.1659,26.1253 2.1659,17.8793 C2.1659,9.6323 8.8749,2.9243 17.1209,2.9243" id="Fill-8" fill="#383535" mask="url(#mask-5)"></path>
                            </g>
                        </g>
                    </g>
                    <path d="M43,11 C43,11.4416 42.6416,11.8 42.2,11.8 L39.8,11.7992 L39.8,14.2 C39.8,14.6424 39.4424,15 39,15 C38.5576,15 38.2,14.6424 38.2,14.2 L38.2,11.7992 L35.8,11.8 C35.3584,11.8 35,11.4416 35,11 L35,11 C35,10.5584 35.3576,10.2 35.8,10.2 L38.2,10.1992 L38.2,7.8 C38.2,7.3584 38.5576,7 39,7 C39.4424,7 39.8,7.3584 39.8,7.8 L39.8,10.1992 L42.2,10.2 C42.6424,10.2 43,10.5584 43,11 Z M39,3 C34.5824,3 31,6.5816 31,11 C31,15.4176 34.5824,19 39,19 C43.4176,19 47,15.4176 47,11 C47,6.5816 43.4176,3 39,3 L39,3 Z" id="Fill-1" fill="#B9B6B6"></path>
                </g>
            </g>
        </g>
    </g>
</svg>