<svg xmlns="http://www.w3.org/2000/svg" width="80" height="80" viewBox="0 0 80 80">
    <defs>
        <filter id="vcl4d7coxa">
            <feColorMatrix in="SourceGraphic" values="0 0 0 0 0.725490 0 0 0 0 0.713725 0 0 0 0 0.713725 0 0 0 1.000000 0"/>
        </filter>
    </defs>
    <g fill="none" fill-rule="evenodd">
        <g>
            <g transform="translate(-20 -129) translate(20 129)">
                <circle cx="40" cy="40" r="40" fill="#F4F4F4"/>
                <g filter="url(#vcl4d7coxa)">
                    <g>
                        <path fill="#E73331" d="M32.971 33.278V34.5H.029v-1.222S-1.438 23.5 16.5 23.5s16.471 9.778 16.471 9.778" transform="translate(24 22.5)"/>
                        <path stroke="#E73331" stroke-linecap="square" stroke-linejoin="round" stroke-width="1.5" d="M32.971 33.278V34.5H.029v-1.222S-1.438 23.5 16.5 23.5s16.471 9.778 16.471 9.778z" transform="translate(24 22.5)"/>
                        <path fill="#E73331" d="M24 7.5c0 3.866-3.357 7-7.5 7-4.14 0-7.5-3.134-7.5-7s3.36-7 7.5-7c4.143 0 7.5 3.134 7.5 7" transform="translate(24 22.5)"/>
                        <path stroke="#E73331" stroke-linecap="square" stroke-linejoin="round" stroke-width="1.5" d="M24 7.5c0 3.866-3.357 7-7.5 7-4.14 0-7.5-3.134-7.5-7s3.36-7 7.5-7c4.143 0 7.5 3.134 7.5 7z" transform="translate(24 22.5)"/>
                    </g>
                </g>
            </g>
        </g>
    </g>
</svg>
