<svg xmlns="http://www.w3.org/2000/svg" width="24" height="24" viewBox="0 0 24 24">
    <g fill="none" fill-rule="evenodd">
        <g stroke="#383535" stroke-width="1.5">
            <g>
                <g>
                    <g>
                        <path d="M13.198 11.545c-1.417 0-2.5 1.083-2.5 2.5s1.083 2.5 2.5 2.5 2.5-1.083 2.5-2.5-1.083-2.5-2.5-2.5zM13.198 0c-1.417 0-2.5 1.083-2.5 2.5S11.78 5 13.198 5s2.5-1.083 2.5-2.5-1.083-2.5-2.5-2.5zM10.675 12.745L5.101 9.723M10.684 3.931L5.11 6.953M2.5 5.868c-1.417 0-2.5 1.084-2.5 2.5 0 1.417 1.083 2.5 2.5 2.5S5 9.785 5 8.368c0-1.416-1.083-2.5-2.5-2.5z" transform="translate(-276 -34) translate(0 24) translate(276 10) translate(4 4)"/>
                    </g>
                </g>
            </g>
        </g>
    </g>
</svg>
