<svg xmlns="http://www.w3.org/2000/svg" xmlns:xlink="http://www.w3.org/1999/xlink" width="50" height="50" viewBox="0 0 50 50">
    <defs>
        <path id="zfzcm2ok4b" d="M11.003 3.34c0 1.393 1.179 2.516 2.64 2.516 1.463 0 2.634-1.123 2.634-2.516 0-1.394-1.171-2.516-2.634-2.516-1.461 0-2.64 1.122-2.64 2.516zm-7.047 0c0 1.393 1.181 2.516 2.641 2.516 1.464 0 2.635-1.123 2.635-2.516 0-1.394-1.171-2.516-2.635-2.516-1.46 0-2.641 1.122-2.641 2.516zm8.833 4.235s1.737 1.653 1.737 2.894v1.365c0 .405.36.734.806.734h3.67c.446 0 .807-.329.807-.734v-1.365c0-1.953-4.113-2.934-6.166-2.934-.255 0-.854.04-.854.04zM.432 10.469v1.365c0 .405.362.734.808.734h10.717c.444 0 .807-.329.807-.734v-1.365c0-1.953-4.114-2.934-6.167-2.934-2.054 0-6.165.981-6.165 2.934z"/>
        <path id="ax2d2nwevd" d="M17.121.924l.322.003c9.216.172 16.633 7.696 16.633 16.952l-.003.322c-.172 9.216-7.696 16.633-16.952 16.633l-.322-.003C7.583 34.659.166 27.135.166 17.879.166 8.515 7.757.924 17.121.924"/>
        <filter id="p2sb1ytapa">
            <feColorMatrix in="SourceGraphic" values="0 0 0 0 0.725490 0 0 0 0 0.713725 0 0 0 0 0.713725 0 0 0 1.000000 0"/>
        </filter>
    </defs>
    <g fill="none" fill-rule="evenodd">
        <g>
            <g>
                <g>
                    <g filter="url(#p2sb1ytapa)" transform="translate(-71 -392) translate(20 374) translate(51 18)">
                        <g>
                            <path fill="#383535" d="M18.003 14.34c0 1.393 1.179 2.516 2.64 2.516 1.463 0 2.634-1.123 2.634-2.517 0-1.393-1.171-2.516-2.634-2.516-1.461 0-2.64 1.123-2.64 2.516m-7.047 0c0 1.394 1.18 2.517 2.642 2.517 1.463 0 2.634-1.123 2.634-2.517 0-1.393-1.171-2.516-2.634-2.516-1.461 0-2.642 1.123-2.642 2.516m8.833 4.235s1.737 1.654 1.737 2.895v1.364c0 .405.36.735.806.735h3.67c.446 0 .808-.33.808-.735V21.47c0-1.953-4.113-2.934-6.167-2.934-.255 0-.854.04-.854.04M7.433 21.468v1.364c0 .405.362.735.807.735h10.717c.444 0 .808-.33.808-.735V21.47c0-1.953-4.115-2.934-6.167-2.934-2.054 0-6.165.981-6.165 2.934" transform="translate(8 8)"/>
                            <g transform="translate(8 8) translate(7 11)">
                                <mask id="5ut3mj0znc" fill="#fff">
                                    <use xlink:href="#zfzcm2ok4b"/>
                                </mask>
                                <path fill="#383535" d="M-8.045 20.201L28.287 20.201 28.287 -7.653 -8.045 -7.653z" mask="url(#5ut3mj0znc)"/>
                                <path fill="#383535" d="M0.432 12.934L19.809 12.934 19.809 0.824 0.432 0.824z" mask="url(#5ut3mj0znc)"/>
                                <path fill="#383535" d="M-13.696 25.962L33.939 25.962 33.939 -12.572 -13.696 -12.572z" mask="url(#5ut3mj0znc)"/>
                            </g>
                            <g transform="translate(8 8)">
                                <mask id="9vznzl6sae" fill="#fff">
                                    <use xlink:href="#ax2d2nwevd"/>
                                </mask>
                                <path fill="#383535" d="M17.12.924C7.758.924.167 8.515.167 17.88c0 9.363 7.59 16.955 16.955 16.955 9.364 0 16.955-7.592 16.955-16.955C34.076 8.515 26.485.924 17.12.924m0 2c8.247 0 14.955 6.708 14.955 14.955 0 8.246-6.708 14.955-14.955 14.955-8.246 0-14.955-6.709-14.955-14.955 0-8.247 6.709-14.955 14.955-14.955" mask="url(#9vznzl6sae)"/>
                            </g>
                        </g>
                    </g>
                    <path fill="#B9B6B6" d="M43 11c0 .442-.358.8-.8.8h-2.4v2.4c0 .442-.358.8-.8.8-.442 0-.8-.358-.8-.8v-2.4h-2.4c-.442 0-.8-.358-.8-.8 0-.442.358-.8.8-.8h2.4V7.8c0-.442.358-.8.8-.8.442 0 .8.358.8.8v2.4h2.4c.442 0 .8.358.8.8zm-4-8c-4.418 0-8 3.582-8 8s3.582 8 8 8 8-3.582 8-8-3.582-8-8-8z" transform="translate(-71 -392) translate(20 374) translate(51 18)"/>
                </g>
            </g>
        </g>
    </g>
</svg>
