<svg xmlns="http://www.w3.org/2000/svg" width="48" height="48" viewBox="0 0 48 48">
    <defs>
        <filter id="28dwydq4na">
            <feColorMatrix in="SourceGraphic" values="0 0 0 0 0.219608 0 0 0 0 0.207843 0 0 0 0 0.207843 0 0 0 1.000000 0"/>
        </filter>
    </defs>
    <g fill="none" fill-rule="evenodd">
        <g>
            <g>
                <g>
                    <g>
                        <g transform="translate(-31 -282) translate(20 282) translate(11) translate(10 10)">
                            <circle cx="14" cy="14" r="13.25" stroke="#DBDBDB" stroke-width="1.5"/>
                            <g fill="#B8B8B8" fill-rule="nonzero">
                                <g transform="translate(6 6) translate(0 2)">
                                    <circle cx="8" cy="6.792" r="2.396"/>
                                    <path d="M14.73 2h-2.272c-.191 0-.37-.083-.5-.225C10.775.45 10.33 0 9.846 0H6.283c-.487 0-.966.45-2.154 1.78-.125.14-.308.22-.496.22h-.17v-.333c0-.184-.15-.334-.334-.334H2.046c-.183 0-.333.15-.333.334V2H1.4C.663 2 0 2.55 0 3.28v7.333C0 11.341.662 12 1.396 12h13.333c.734 0 1.271-.658 1.271-1.387V3.279C16 2.55 15.463 2 14.73 2zm-6.563 8.35c-2.096.096-3.821-1.63-3.725-3.725.083-1.83 1.562-3.308 3.391-3.392 2.096-.095 3.821 1.63 3.725 3.725-.083 1.83-1.562 3.309-3.391 3.392zM12 4.417c-.3 0-.542-.242-.542-.542 0-.3.242-.542.542-.542.3 0 .542.242.542.542 0 .3-.242.542-.542.542z"/>
                                </g>
                            </g>
                        </g>
                        <g transform="translate(-31 -282) translate(20 282) translate(11) translate(27 24)">
                            <circle cx="8" cy="8" r="8" fill="#FFF"/>
                            <g filter="url(#28dwydq4na)">
                                <g>
                                    <path fill="#E73331" d="M9.917 7c0 .322-.262.583-.584.583h-1.75v1.75c0 .323-.26.584-.583.584-.323 0-.583-.261-.583-.584v-1.75h-1.75c-.322 0-.584-.261-.584-.583 0-.322.261-.583.584-.583h1.75v-1.75c0-.322.26-.584.583-.584.323 0 .583.262.583.584v1.75h1.75c.323 0 .584.261.584.583zM7 1.167C3.779 1.167 1.167 3.778 1.167 7c0 3.221 2.612 5.833 5.833 5.833S12.833 10.221 12.833 7c0-3.222-2.612-5.833-5.833-5.833z" transform="translate(1 1)"/>
                                </g>
                            </g>
                        </g>
                    </g>
                </g>
            </g>
        </g>
    </g>
</svg>
