<svg xmlns="http://www.w3.org/2000/svg" width="24" height="24" viewBox="0 0 24 24">
    <defs>
        <filter id="s1f8yqu7va">
            <feColorMatrix in="SourceGraphic" values="0 0 0 0 0.905882 0 0 0 0 0.200000 0 0 0 0 0.192157 0 0 0 1.000000 0"/>
        </filter>
    </defs>
    <g fill="none" fill-rule="evenodd">
        <g>
            <g>
                <g>
                    <g filter="url(#s1f8yqu7va)" transform="translate(-244 -293) translate(0 285) translate(216)">
                        <g>
                            <path fill="#E73331" d="M18.632 16.263h-2.213v-1.58c0-.933-.63-2.059-.63-2.059s.154-.15.26-.15c.86 0 2.583.739 2.583 2.21v1.58zm-3.316 0H8.685v-1.692c0-1.139 1.152-1.865 2.21-2.183.258-.077.508-.13.737-.159.13-.015.257-.026.368-.026.111 0 .237.011.368.026.229.029.479.082.737.16 1.058.317 2.21 1.043 2.21 2.182v1.692zm-7.735 0H5.368v-1.58c0-1.471 1.723-2.21 2.582-2.21.107 0 .26.151.26.151s-.629 1.126-.629 2.06v1.58zm.153-7.579c.789 0 1.424.634 1.424 1.421 0 .788-.635 1.421-1.424 1.421-.787 0-1.418-.633-1.418-1.42 0-.788.63-1.422 1.418-1.422zm2.634-.947c.061-.105.131-.204.21-.295.349-.397.854-.653 1.425-.653.57 0 1.072.255 1.418.65.08.092.152.192.213.298.162.28.26.6.26.947 0 .48-.181.913-.473 1.245-.246.281-.572.488-.947.585-.15.038-.307.065-.471.065-.166 0-.323-.028-.477-.067-.375-.098-.7-.304-.947-.586-.292-.333-.474-.763-.474-1.242 0-.347.1-.668.263-.947zm5.897.947c.788 0 1.42.635 1.42 1.421s-.632 1.421-1.42 1.421c-.788 0-1.423-.635-1.423-1.42 0-.787.635-1.422 1.423-1.422zM18.158 3H5.842c-1.236 0-2.276.794-2.668 1.895-.106.297-.174.613-.174.947V18.158C3 19.728 4.272 21 5.842 21H18.158C19.728 21 21 19.728 21 18.158V5.842c0-.334-.068-.65-.174-.947C20.434 3.794 19.394 3 18.158 3z" transform="translate(28 8)"/>
                        </g>
                    </g>
                </g>
            </g>
        </g>
    </g>
</svg>
