<svg xmlns="http://www.w3.org/2000/svg" width="12" height="12" viewBox="0 0 12 12">
    <g fill="none" fill-rule="evenodd">
        <g>
            <g>
                <g>
                    <g fill="#B9B6B6">
                        <path d="M5 0C2.24 0 0 2.24 0 5s2.24 5 5 5 5-2.24 5-5-2.24-5-5-5zm0 9c-2.257-.252-4-1.98-4-4.08 0-.318.046-.622.12-.92l2.737 2.464v.514c0 .566.514 1.03 1.143 1.03V9zm2.95-1c-.13-.38-.5-.652-.95-.652h-.5V5.942c0-.258-.225-.469-.5-.469H3v-.937h1c.275 0 .5-.211.5-.469V3.13h1c.55 0 1-.422 1-.938V2C7.965 2.558 9 3.903 9 5.473 9 6.448 8.6 7.334 7.95 8z" transform="translate(-64 -105) translate(64 105) translate(1 1)"/>
                    </g>
                    <path d="M0 0H12V12H0z" transform="translate(-64 -105) translate(64 105)"/>
                </g>
            </g>
        </g>
    </g>
</svg>
