<svg xmlns="http://www.w3.org/2000/svg" xmlns:xlink="http://www.w3.org/1999/xlink" width="33" height="34" viewBox="0 0 33 34">
    <defs>
        <path id="zn5izxkwib" d="M0.194 0.111L31.253 0.111 31.253 32.111 0.194 32.111z"/>
        <path id="1r5uedqi7d" d="M2.912 3.2c0 1.77 1.39 3.2 3.11 3.2 1.722 0 3.102-1.43 3.102-3.2 0-1.771-1.38-3.2-3.102-3.2-1.72 0-3.11 1.429-3.11 3.2zm-2.33 9.943V16h10.87v-2.857c0-2.663-3.625-4-5.434-4-1.81 0-5.436 1.337-5.436 4z"/>
        <path id="cg2w09lvlf" d="M-.001 2.601C-.001 3.927 1.041 5 2.331 5 3.624 5 4.66 3.927 4.66 2.601 4.659 1.272 3.624.2 2.33.2 1.041.2 0 1.272 0 2.601z"/>
        <path id="mgvz52g1bh" d="M.582.855s1.031 1.9 1.031 3.477V7h3.628V4.332C5.241 1.848 2.418.6 1.008.6.834.6.582.855.582.855z"/>
        <path id="2q45nq54oj" d="M.582 2.6C.582 3.929 1.617 5 2.908 5 4.198 5 5.24 3.929 5.24 2.6S4.2.2 2.908.2C1.617.2.582 1.271.582 2.6z"/>
        <path id="4jf1ebp50l" d="M0 4.332V7h3.627V4.332C3.627 2.755 4.66.855 4.66.855S4.407.6 4.23.6C2.823.6 0 1.847 0 4.332z"/>
        <filter id="m0tpunv4ca">
            <feColorMatrix in="SourceGraphic" values="0 0 0 0 0.600000 0 0 0 0 0.588235 0 0 0 0 0.588235 0 0 0 1.000000 0"/>
        </filter>
    </defs>
    <g fill="none" fill-rule="evenodd">
        <g>
            <g>
                <g filter="url(#m0tpunv4ca)" transform="translate(-164 -614) translate(20 614)">
                    <g>
                        <g>
                            <g>
                                <g transform="translate(144) translate(.97) translate(0 .889)">
                                    <mask id="ob5i729wcc" fill="#fff">
                                        <use xlink:href="#zn5izxkwib"/>
                                    </mask>
                                    <path fill="#383535" d="M26.349.11H5.098C2.39.11.194 2.375.194 5.165v21.894c0 2.79 2.196 5.053 4.904 5.053h21.25c2.71 0 4.905-2.262 4.905-5.053V5.164c0-2.79-2.195-5.053-4.904-5.053m0 2c1.634 0 2.963 1.37 2.963 3.053v21.894c0 1.684-1.329 3.053-2.963 3.053H5.098c-1.634 0-2.963-1.37-2.963-3.053V5.164c0-1.683 1.33-3.053 2.963-3.053h21.25" mask="url(#ob5i729wcc)"/>
                                </g>
                                <path fill="#383535" d="M15.724 18.143c-1.81 0-5.436 1.337-5.436 4V25h10.87v-2.856c0-2.663-3.625-4-5.434-4m.004-2.743c1.722 0 3.101-1.43 3.101-3.2 0-1.77-1.379-3.2-3.1-3.2s-3.111 1.43-3.111 3.2c0 1.77 1.39 3.2 3.11 3.2" transform="translate(144) translate(.97) translate(0 .889)"/>
                            </g>
                            <g transform="translate(144) translate(.97) translate(9.706 9.889)">
                                <mask id="h1mwjf514e" fill="#fff">
                                    <use xlink:href="#1r5uedqi7d"/>
                                </mask>
                                <path fill="#383535" d="M-7.182 24L19.218 24 19.218 -8 -7.182 -8z" mask="url(#h1mwjf514e)"/>
                            </g>
                            <path fill="#383535" d="M22.714 17.888c1.292 0 2.327-1.072 2.327-2.398 0-1.33-1.035-2.402-2.327-2.402-1.29 0-2.332 1.072-2.332 2.402 0 1.326 1.042 2.398 2.332 2.398" transform="translate(144) translate(.97)"/>
                            <g transform="translate(144) translate(.97) translate(20.382 12.889)">
                                <mask id="2okolshypg" fill="#fff">
                                    <use xlink:href="#cg2w09lvlf"/>
                                </mask>
                                <path fill="#383535" d="M-7.765 13L12.424 13 12.424 -7.8 -7.765 -7.8z" mask="url(#2okolshypg)"/>
                            </g>
                            <path fill="#383535" d="M22.361 19.489c-.175 0-.426.255-.426.255s1.03 1.899 1.03 3.477v2.667h3.629v-2.667c0-2.484-2.823-3.732-4.233-3.732" transform="translate(144) translate(.97)"/>
                            <g transform="translate(144) translate(.97) translate(21.353 18.889)">
                                <mask id="q0cqja8ipi" fill="#fff">
                                    <use xlink:href="#mgvz52g1bh"/>
                                </mask>
                                <path fill="#383535" d="M-7.182 14.999L13.006 14.999 13.006 -7.4 -7.182 -7.4z" mask="url(#q0cqja8ipi)"/>
                            </g>
                            <path fill="#383535" d="M11.065 15.489c0-1.329-1.043-2.4-2.333-2.4-1.291 0-2.326 1.071-2.326 2.4s1.035 2.399 2.326 2.399c1.29 0 2.333-1.07 2.333-2.399" transform="translate(144) translate(.97)"/>
                            <g transform="translate(144) translate(.97) translate(5.824 12.889)">
                                <mask id="kr1yu1uy0k" fill="#fff">
                                    <use xlink:href="#2q45nq54oj"/>
                                </mask>
                                <path fill="#383535" d="M-7.182 13L13.006 13 13.006 -7.8 -7.182 -7.8z" mask="url(#kr1yu1uy0k)"/>
                            </g>
                            <path fill="#383535" d="M4.853 23.221v2.667H8.48v-2.667c0-1.578 1.032-3.478 1.032-3.478s-.252-.254-.428-.254c-1.408 0-4.231 1.247-4.231 3.732" transform="translate(144) translate(.97)"/>
                            <g transform="translate(144) translate(.97) translate(4.853 18.889)">
                                <mask id="srod6e8xsm" fill="#fff">
                                    <use xlink:href="#4jf1ebp50l"/>
                                </mask>
                                <path fill="#383535" d="M-7.765 14.999L12.424 14.999 12.424 -7.4 -7.765 -7.4z" mask="url(#srod6e8xsm)"/>
                            </g>
                        </g>
                    </g>
                </g>
            </g>
        </g>
    </g>
</svg>
