<svg xmlns="http://www.w3.org/2000/svg" xmlns:xlink="http://www.w3.org/1999/xlink" width="50" height="50" viewBox="0 0 50 50">
    <defs>
        <path id="wzuhckrz1a" d="M0 0L30 0 30 30 0 30z"/>
    </defs>
    <g fill="none" fill-rule="evenodd">
        <g transform="translate(10 10)">
            <mask id="47yvr0uzlb" fill="#fff">
                <use xlink:href="#wzuhckrz1a"/>
            </mask>
            <path fill="#383535" d="M25.263 0H4.737C2.121 0 0 2.12 0 4.737v20.527C0 27.879 2.121 30 4.737 30h20.526C27.879 30 30 27.879 30 25.264V4.737C30 2.12 27.879 0 25.263 0m0 2C26.772 2 28 3.228 28 4.737v20.527C28 26.772 26.772 28 25.263 28H4.737C3.228 28 2 26.772 2 25.264V4.737C2 3.227 3.228 2 4.737 2h20.526" mask="url(#47yvr0uzlb)"/>
            <path stroke="#383535" stroke-linecap="round" stroke-width="2" d="M6.667 10L23.334 10M6.667 15L23.334 15M6.667 20L15 20"/>
        </g>
        <path d="M0 0H50V50H0z"/>
    </g>
</svg>
