<svg xmlns="http://www.w3.org/2000/svg" width="30" height="30" viewBox="0 0 30 30">
    <g fill="none" fill-rule="evenodd">
        <g>
            <g>
                <circle cx="15" cy="15" r="14.5" stroke="#DBDBDB"/>
                <g fill="#999696" fill-rule="nonzero">
                    <path d="M7 1.262c1.869 0 2.09.007 2.83.04 1.896.087 2.782.987 2.869 2.87.033.738.04.96.04 2.829 0 1.87-.007 2.09-.04 2.828-.087 1.881-.971 2.783-2.87 2.87-.738.033-.959.04-2.829.04-1.869 0-2.09-.007-2.829-.04-1.901-.087-2.783-.992-2.869-2.87-.034-.738-.04-.96-.04-2.829 0-1.869.007-2.09.04-2.829.087-1.882.97-2.783 2.87-2.869.738-.033.959-.04 2.828-.04zM7 0C5.099 0 4.86.008 4.114.042 1.572.159.16 1.569.043 4.114.008 4.86 0 5.099 0 7c0 1.901.008 2.14.042 2.886.117 2.543 1.527 3.955 4.072 4.072.747.034.985.042 2.886.042 1.901 0 2.14-.008 2.886-.042 2.54-.117 3.957-1.527 4.071-4.072C13.992 9.14 14 8.901 14 7c0-1.901-.008-2.14-.042-2.886C13.844 1.574 12.431.16 9.887.043 9.14.008 8.9 0 7 0zm0 3.405c-1.985 0-3.595 1.61-3.595 3.595S5.016 10.595 7 10.595 10.595 8.985 10.595 7 8.985 3.405 7 3.405zm0 5.928C5.711 9.333 4.667 8.29 4.667 7 4.667 5.711 5.71 4.667 7 4.667 8.289 4.667 9.333 5.71 9.333 7 9.333 8.29 8.29 9.333 7 9.333zm3.737-6.91c-.464 0-.84.377-.84.84 0 .465.376.84.84.84.464 0 .84-.375.84-.84 0-.463-.376-.84-.84-.84z" transform="translate(8 8)"/>
                </g>
            </g>
            <path d="M0 0H30V30H0z"/>
        </g>
    </g>
</svg>
