<svg xmlns="http://www.w3.org/2000/svg" xmlns:xlink="http://www.w3.org/1999/xlink" width="48" height="48" viewBox="0 0 48 48">
    <defs>
        <path id="zpuxxkyjtb" d="M.788 6.167C.788 9.389 3.399 12 6.62 12c3.222 0 5.834-2.611 5.834-5.833S9.842.334 6.62.334C3.399.334.788 2.945.788 6.167zm2.916 0c0-.323.261-.584.583-.584h1.75V3.834c0-.322.261-.584.583-.584.323 0 .584.262.584.584v1.749h1.75c.322 0 .583.261.583.584 0 .322-.261.583-.583.583h-1.75v1.749c0 .324-.261.585-.584.585-.322 0-.583-.261-.583-.585V6.75h-1.75c-.322 0-.583-.261-.583-.583z"/>
        <path id="z3eoc91bqd" d="M0 0.23L29.999 0.23 29.999 30.228 0 30.228z"/>
        <filter id="gwc0hkqkya">
            <feColorMatrix in="SourceGraphic" values="0 0 0 0 0.905882 0 0 0 0 0.200000 0 0 0 0 0.192157 0 0 0 1.000000 0"/>
        </filter>
    </defs>
    <g fill="none" fill-rule="evenodd">
        <g>
            <g>
                <g>
                    <g>
                        <g filter="url(#gwc0hkqkya)" transform="translate(-8 -587) translate(0 582) translate(8 5)">
                            <g>
                                <g fill="#E73331">
                                    <path d="M.62 8.132v1.126c0 .335.3.606.668.606h8.849c.367 0 .667-.272.667-.607V8.133c0-1.613-3.398-2.423-5.092-2.423-1.696 0-5.091.81-5.091 2.423M3.53 2.244c0 1.15.975 2.078 2.182 2.078 1.208 0 2.174-.928 2.174-2.078S6.92.167 5.712.167c-1.207 0-2.182.928-2.182 2.077M9.349 2.244c0 1.15.973 2.078 2.18 2.078 1.208 0 2.174-.928 2.174-2.078S12.737.167 11.529.167c-1.207 0-2.18.928-2.18 2.077M15.176 6.515c-1.13-.536-2.67-.807-3.648-.807-.21 0-.705.033-.705.033s1.435 1.365 1.435 2.39v1.126c0 .158.07.3.178.407.623-1.276 1.57-2.365 2.74-3.149" transform="translate(9 8) translate(5 10.77)"/>
                                </g>
                                <g transform="translate(9 8) translate(18 17.77)">
                                    <mask id="x8awjvxmdc" fill="#fff">
                                        <use xlink:href="#zpuxxkyjtb"/>
                                    </mask>
                                    <path fill="#E73331" d="M-4.213 17L17.454 17 17.454 -4.666 -4.213 -4.666z" mask="url(#x8awjvxmdc)"/>
                                </g>
                                <g transform="translate(9 8) translate(0 .77)">
                                    <mask id="3y2uaduzme" fill="#fff">
                                        <use xlink:href="#z3eoc91bqd"/>
                                    </mask>
                                    <path fill="#383535" d="M16.455.3C6.998-.598-.898 7.347.082 16.82c.594 5.733 4.5 10.74 9.96 12.588 3.171 1.074 6.527 1.08 9.587.09.01-.05.006-.094-.005-.132-.47-.38-.9-.806-1.273-1.283-.118-.149-.304-.218-.49-.177-.935.211-1.894.324-2.86.324-7.34 0-13.278-6.114-12.99-13.516C2.268 8.03 7.801 2.498 14.486 2.24 21.89 1.953 28 7.892 28 15.23c0 .221-.015.44-.025.658.691.318 1.33.73 1.897 1.222.03-.237.064-.47.083-.71l.007-.096C30.532 8.276 24.468 1.058 16.455.3" mask="url(#3y2uaduzme)"/>
                                </g>
                            </g>
                        </g>
                    </g>
                </g>
            </g>
        </g>
    </g>
</svg>
