<svg xmlns="http://www.w3.org/2000/svg" width="30" height="30" viewBox="0 0 30 30">
    <g fill="none" fill-rule="evenodd">
        <g fill="#E73331" stroke="#E73331" stroke-width="1.5">
            <g>
                <path d="M15.276 0c2.559 0 4.563 1.914 4.563 4.359 0 3.452-3.763 6.763-9.499 11.816 0 0-.24.244-.416.244-.175 0-.436-.267-.436-.267C3.774 11.133 0 7.817 0 4.359 0 1.914 2.005 0 4.563 0c1.465 0 2.912.648 3.866 1.737.377.428.92.673 1.49.673.571 0 1.114-.245 1.491-.673C12.365.648 13.812 0 15.276 0" transform="translate(-20 -598) translate(20 598) translate(5 7)"/>
            </g>
        </g>
    </g>
</svg>
