<svg xmlns="http://www.w3.org/2000/svg" xmlns:xlink="http://www.w3.org/1999/xlink" width="24" height="24" viewBox="0 0 24 24">
    <defs>
        <path id="w2s45xn4za" d="M13.05 0l.223.005c2.591.106 4.612 2.064 4.722 4.575l.005.216-.005.229c-.135 3.113-3.012 5.714-7.353 9.536l-.337.296-.644.564-.098.076c-.336.227-.777.229-1.114.005l-.108-.083-.646-.57-.32-.282C3.027 10.747.142 8.145.004 5.031L0 4.796l.005-.216C.115 2.07 2.133.115 4.72.005L4.95 0l.26.006c1.385.07 2.7.683 3.622 1.634L9 1.822l.168-.182"/>
        <path id="z5xsawsb5d" d="M13.05 0C11.485 0 9.982.706 9 1.822 8.019.706 6.516 0 4.95 0 2.178 0 0 2.11 0 4.796c0 3.296 3.06 5.981 7.696 10.053L9 16l1.305-1.143C14.94 10.777 18 8.092 18 4.796 18 2.11 15.822 0 13.05 0m0 1.5c1.935 0 3.45 1.447 3.45 3.296 0 2.609-2.845 5.113-7.182 8.933l-.314.274-.33-.291C4.354 9.917 1.5 7.41 1.5 4.796 1.5 2.947 3.016 1.5 4.95 1.5c1.108 0 2.202.49 2.923 1.313.285.324.696.509 1.127.509.432 0 .842-.185 1.127-.509.722-.823 1.816-1.313 2.923-1.313"/>
        <filter id="oyh9d38lrc" width="166.7%" height="175%" x="-33.3%" y="-37.5%" filterUnits="objectBoundingBox">
            <feOffset in="SourceAlpha" result="shadowOffsetOuter1"/>
            <feGaussianBlur in="shadowOffsetOuter1" result="shadowBlurOuter1" stdDeviation="2"/>
            <feColorMatrix in="shadowBlurOuter1" values="0 0 0 0 0 0 0 0 0 0 0 0 0 0 0 0 0 0 0.2 0"/>
        </filter>
    </defs>
    <g fill="none" fill-rule="evenodd">
        <g>
            <g>
                <g>
                    <g transform="translate(-185 -642) translate(20 632) translate(165 10) translate(3 4)">
                        <mask id="g1xklqls7b" fill="#fff">
                            <use xlink:href="#w2s45xn4za"/>
                        </mask>
                        <g mask="url(#g1xklqls7b)">
                            <use fill="#000" filter="url(#oyh9d38lrc)" xlink:href="#z5xsawsb5d"/>
                            <use fill="#FFF" xlink:href="#z5xsawsb5d"/>
                        </g>
                    </g>
                </g>
            </g>
        </g>
    </g>
</svg>
