<svg xmlns="http://www.w3.org/2000/svg" width="95" height="18" viewBox="0 0 95 18">
    <g fill="none" fill-rule="evenodd">
        <g fill="#E73331">
            <g>
                <g>
                    <g>
                        <g>
                            <path d="M14.458.366L14.213.489 8.562 7.329 2.886.489 2.642.366.122.366 0 .489 0 17.346.122 17.468 2.716 17.468 2.838 17.346 2.838 4.691 8.44 11.409 8.684 11.409 14.262 4.691 14.262 17.346 14.384 17.468 17.002 17.468 17.124 17.346 17.124.489 17.002.366zM25.197.503l.123.122v8.918c0 3.59 2.128 5.448 4.745 5.448 2.594 0 4.722-1.857 4.722-5.448V.625l.122-.122h2.617l.123.122v9.406c0 5.008-3.425 7.94-7.584 7.94-4.158 0-7.583-2.932-7.583-7.94V.625l.122-.122h2.593zM45.494.366L45.735.487 55.012 12.567 55.012.487 55.132.366 57.711.366 57.831.487 57.831 17.09 57.711 17.211 55.012 17.211 54.771 17.09 45.494 5.01 45.494 17.09 45.374 17.211 42.819 17.211 42.699 17.09 42.699.487 42.819.366zM75.246.366L75.368.488 75.368 3.103 75.246 3.225 69.938 3.225 69.938 17.28 69.815 17.402 67.222 17.402 67.1 17.28 67.1 3.225 61.791 3.225 61.669 3.103 61.669.488 61.791.366zM85.872 14.854c-3.229 0-5.822-2.615-5.822-5.937s2.593-5.937 5.822-5.937c3.23 0 5.823 2.615 5.823 5.937s-2.593 5.937-5.823 5.937m0-14.854c-5.014 0-9.051 3.958-9.051 8.917 0 4.96 4.037 8.917 9.051 8.917 4.991 0 9.052-3.958 9.052-8.917 0-4.96-4.061-8.917-9.052-8.917" transform="translate(-134 -35) translate(0 24) translate(134 11)"/>
                        </g>
                    </g>
                </g>
            </g>
        </g>
    </g>
</svg>
