<svg xmlns="http://www.w3.org/2000/svg" width="24" height="24" viewBox="0 0 24 24">
    <defs>
        <filter id="y58fje0eqa">
            <feColorMatrix in="SourceGraphic" values="0 0 0 0 0.725490 0 0 0 0 0.713725 0 0 0 0 0.713725 0 0 0 1.000000 0"/>
        </filter>
    </defs>
    <g fill="none" fill-rule="evenodd">
        <g>
            <g>
                <g>
                    <g filter="url(#y58fje0eqa)" transform="translate(-312 -187) translate(0 179) translate(288)">
                        <g>
                            <g fill="#B9B6B6">
                                <path d="M8 0C5.791 0 4 1.791 4 4s1.791 4 4 4 4-1.791 4-4-1.791-4-4-4m0 1.5c1.379 0 2.5 1.122 2.5 2.5S9.379 6.5 8 6.5C6.622 6.5 5.5 5.378 5.5 4S6.622 1.5 8 1.5M8 10c-2.67 0-8 1.34-8 4v2h16v-2c0-2.66-5.33-4-8-4m0 1.5c2.855 0 6.5 1.402 6.5 2.5v.5h-13V14c0-1.098 3.645-2.5 6.5-2.5" transform="translate(24 8) translate(4 5)"/>
                            </g>
                        </g>
                    </g>
                </g>
            </g>
        </g>
    </g>
</svg>
