<svg xmlns="http://www.w3.org/2000/svg" width="24" height="24" viewBox="0 0 24 24">
    <defs>
        <filter id="fwat9hlnta">
            <feColorMatrix in="SourceGraphic" values="0 0 0 0 0.905882 0 0 0 0 0.200000 0 0 0 0 0.192157 0 0 0 1.000000 0"/>
        </filter>
    </defs>
    <g fill="none" fill-rule="evenodd">
        <g>
            <g>
                <g>
                    <g filter="url(#fwat9hlnta)" transform="translate(-312 -293) translate(0 285) translate(288)">
                        <g>
                            <g>
                                <path fill="#E73331" d="M13.762 13.655v.5h-13v-.5s-.58-4 6.5-4c7.079 0 6.5 4 6.5 4" transform="translate(24 8) translate(5 5)"/>
                                <path stroke="#E73331" stroke-linecap="square" stroke-linejoin="round" stroke-width="1.5" d="M13.762 13.655v.5h-13v-.5s-.58-4 6.5-4c7.079 0 6.5 4 6.5 4z" transform="translate(24 8) translate(5 5)"/>
                                <path fill="#E73331" d="M10.094 3.517c0 1.528-1.268 2.767-2.833 2.767-1.564 0-2.833-1.24-2.833-2.767C4.428 1.989 5.698.75 7.261.75c1.565 0 2.833 1.239 2.833 2.767" transform="translate(24 8) translate(5 5)"/>
                                <path stroke="#E73331" stroke-linecap="square" stroke-linejoin="round" stroke-width="1.5" d="M10.094 3.517c0 1.528-1.268 2.767-2.833 2.767-1.564 0-2.833-1.24-2.833-2.767C4.428 1.989 5.698.75 7.261.75c1.565 0 2.833 1.239 2.833 2.767z" transform="translate(24 8) translate(5 5)"/>
                            </g>
                        </g>
                    </g>
                </g>
            </g>
        </g>
    </g>
</svg>
