<svg xmlns="http://www.w3.org/2000/svg" xmlns:xlink="http://www.w3.org/1999/xlink" width="24" height="24" viewBox="0 0 24 24">
    <defs>
        <path id="gtln4372ya" d="M8.507.833L1.33 8.93l-.835 2.568c-.027.081-.04.162-.041.241v.029c.009.426.361.778.783.778.081 0 .165-.013.248-.041l2.421-.961 7.231-8.158c.144-.159.218-.359.223-.561v-.048c-.005-.216-.09-.429-.251-.592L9.749.805C9.581.634 9.362.548 9.142.548c-.232 0-.466.096-.635.285zM8.102 3.08l1.053-1.188.906.92L9.008 4l-.906-.92zM2.726 9.145L7.313 3.97l.907.92-4.586 5.173c-.603-.2-.83-.645-.908-.918z"/>
    </defs>
    <g fill="none" fill-rule="evenodd">
        <g>
            <g>
                <g transform="translate(-316 -38) translate(320 41) translate(4 .905)">
                    <mask id="nhnzu9hejb" fill="#fff">
                        <use xlink:href="#gtln4372ya"/>
                    </mask>
                    <path fill="#383535" d="M-5 18L16.814 18 16.814 -4.905 -5 -4.905z" mask="url(#nhnzu9hejb)"/>
                </g>
                <path stroke="#383535" stroke-linecap="round" stroke-linejoin="round" stroke-width="1.5" d="M7.96 2.27H2.516c-.874 0-1.582.71-1.582 1.583v10.745c0 .874.708 1.583 1.582 1.583h10.746c.874 0 1.583-.709 1.583-1.583v-5.44" transform="translate(-316 -38) translate(320 41)"/>
            </g>
        </g>
    </g>
</svg>
