<svg xmlns="http://www.w3.org/2000/svg" xmlns:xlink="http://www.w3.org/1999/xlink" width="24" height="24" viewBox="0 0 24 24">
    <defs>
        <path id="09n94k57ja" d="M0 0.251L15.137 0.251 15.137 14.726 0 14.726z"/>
    </defs>
    <g fill="none" fill-rule="evenodd">
        <g>
            <g>
                <g>
                    <g transform="translate(-316 -10) translate(316 10) translate(4 2) translate(0 .749)">
                        <mask id="pi9qmwn9bb" fill="#fff">
                            <use xlink:href="#09n94k57ja"/>
                        </mask>
                        <path fill="#383535" d="M8.29.25H6.847c-3.192 0-5.78 3.05-5.78 6.813v5.109l-.828.867c-.392.41-.284 1.104.212 1.363l.616.324H14.07l.616-.324c.497-.26.604-.952.212-1.363l-.828-.867v-5.11c0-3.761-2.588-6.811-5.78-6.811m0 2c2.084 0 3.78 2.158 3.78 4.812v5.109c0 .188.027.375.078.554H2.988c.052-.18.078-.366.078-.554v-5.11c0-2.653 1.696-4.811 3.78-4.811H8.29" mask="url(#pi9qmwn9bb)"/>
                    </g>
                    <path stroke="#383535" stroke-width="2" d="M10.82 15.344c0 1.88-1.456 3.405-3.251 3.405-1.796 0-3.251-1.524-3.251-3.405" transform="translate(-316 -10) translate(316 10) translate(4 2)"/>
                </g>
            </g>
        </g>
    </g>
</svg>
