<svg xmlns="http://www.w3.org/2000/svg" width="12" height="12" viewBox="0 0 12 12">
    <g fill="none" fill-rule="evenodd">
        <g fill="#999696" fill-rule="nonzero">
            <g>
                <g transform="translate(1 2)">
                    <ellipse cx="5" cy="4.478" rx="1.497" ry="1.58"/>
                    <path d="M9.206 1.319h-1.42c-.12 0-.231-.055-.312-.149C6.734.297 6.456 0 6.154 0H3.927c-.305 0-.604.297-1.346 1.173-.078.093-.193.146-.31.146h-.107v-.22c0-.121-.094-.22-.208-.22h-.677c-.115 0-.209.099-.209.22v.22H.875c-.46 0-.875.362-.875.843v4.835c0 .481.414.915.872.915h8.334c.458 0 .794-.434.794-.915V2.162c0-.48-.336-.843-.794-.843zM5.104 6.824c-1.31.063-2.388-1.074-2.328-2.456.052-1.206.977-2.181 2.12-2.236 1.31-.063 2.388 1.074 2.328 2.456-.052 1.206-.977 2.181-2.12 2.236zM7.5 2.912c-.188 0-.339-.16-.339-.357 0-.198.152-.357.339-.357.188 0 .339.16.339.357 0 .198-.152.357-.339.357z"/>
                </g>
            </g>
        </g>
    </g>
</svg>
