<svg xmlns="http://www.w3.org/2000/svg" width="30" height="30" viewBox="0 0 30 30">
    <g fill="none" fill-rule="evenodd">
        <g>
            <circle cx="15" cy="15" r="14.5" fill="#FFF" stroke="#B9B6B6"/>
            <g fill="#B9B6B6" fill-rule="nonzero">
                <g transform="translate(6 8)">
                    <ellipse cx="9" cy="7.837" rx="2.695" ry="2.764"/>
                    <path d="M16.57 2.308h-2.554c-.216 0-.418-.096-.563-.26C12.122.52 11.62 0 11.077 0H7.069C6.52 0 5.98.52 4.645 2.053c-.14.163-.347.255-.557.255h-.193v-.385c0-.211-.168-.385-.375-.385H2.302c-.207 0-.375.174-.375.385v.385h-.352C.745 2.308 0 2.942 0 3.784v8.461c0 .842.745 1.601 1.57 1.601h15c.825 0 1.43-.76 1.43-1.6V3.783c0-.842-.605-1.476-1.43-1.476zm-7.383 9.634c-2.357.11-4.298-1.88-4.19-4.298.094-2.11 1.758-3.817 3.816-3.913 2.357-.11 4.298 1.88 4.19 4.298-.094 2.11-1.758 3.817-3.816 3.913zM13.5 5.096c-.338 0-.61-.279-.61-.625s.272-.625.61-.625c.338 0 .61.279.61.625s-.272.625-.61.625z"/>
                </g>
            </g>
        </g>
    </g>
</svg>
