<?xml version="1.0" encoding="UTF-8"?>
<svg width="24px" height="24px" viewBox="0 0 24 24" version="1.1" xmlns="http://www.w3.org/2000/svg" xmlns:xlink="http://www.w3.org/1999/xlink">
    <title>ic/feed/quotes</title>
    <g id="banner" stroke="none" stroke-width="1" fill="none" fill-rule="evenodd">
        <path d="M8.40552995,17 C9.78341014,17 10.8018433,16.0408719 10.8018433,14.4822888 C10.8018433,13.0435967 9.69354839,12.1743869 8.40552995,12.1743869 C8.28571429,12.1743869 8.19585253,12.1743869 8.07603687,12.2043597 C8.10599078,10.2561308 9.09447005,8.9972752 11.0115207,7.94822888 L9.99308756,6 C6.99769585,7.55858311 5.5,9.86648501 5.5,12.9536785 C5.5,15.5013624 6.48847926,17 8.40552995,17 Z M15.8940092,17 C17.2718894,17 18.2903226,16.0408719 18.2903226,14.4822888 C18.2903226,13.0435967 17.1820276,12.1743869 15.8940092,12.1743869 C15.7741935,12.1743869 15.6843318,12.1743869 15.5645161,12.2043597 C15.59447,10.2561308 16.5829493,8.9972752 18.5,7.94822888 L17.4815668,6 C14.4861751,7.55858311 12.9884793,9.86648501 12.9884793,12.9536785 C12.9884793,15.5013624 13.9769585,17 15.8940092,17 Z" id="ic/feed/quotes" fill="#FFFFFF" fill-rule="nonzero"></path>
    </g>
</svg>