<svg xmlns="http://www.w3.org/2000/svg" xmlns:xlink="http://www.w3.org/1999/xlink" width="50" height="50" viewBox="0 0 50 50">
    <defs>
        <path id="no3nx8q0ga" d="M11.003 3.34c0 1.393 1.179 2.516 2.64 2.516 1.463 0 2.634-1.123 2.634-2.516 0-1.394-1.171-2.516-2.634-2.516-1.461 0-2.64 1.122-2.64 2.516zm-7.047 0c0 1.393 1.181 2.516 2.641 2.516 1.464 0 2.635-1.123 2.635-2.516 0-1.394-1.171-2.516-2.635-2.516-1.46 0-2.641 1.122-2.641 2.516zm8.833 4.235s1.737 1.653 1.737 2.894v1.365c0 .405.36.734.806.734h3.67c.446 0 .807-.329.807-.734v-1.365c0-1.953-4.113-2.934-6.166-2.934-.255 0-.854.04-.854.04zM.432 10.469v1.365c0 .405.362.734.808.734h10.717c.444 0 .807-.329.807-.734v-1.365c0-1.953-4.114-2.934-6.167-2.934-2.054 0-6.165.981-6.165 2.934z"/>
        <path id="uh9fdh8hyc" d="M17.121.924l.322.003c9.216.172 16.633 7.696 16.633 16.952l-.003.322c-.172 9.216-7.696 16.633-16.952 16.633l-.322-.003C7.583 34.659.166 27.135.166 17.879.166 8.515 7.757.924 17.121.924"/>
        <path id="qazqa1v6ue" d="M.754 10.568c0 5.35 4.338 9.688 9.689 9.688s9.688-4.338 9.688-9.688c0-5.352-4.337-9.689-9.688-9.689C5.092.879.754 5.216.754 10.568z"/>
    </defs>
    <g fill="none" fill-rule="evenodd">
        <path d="M0 0H50V50H0z"/>
        <g transform="translate(5 7)">
            <path fill="#383535" d="M18.003 14.34c0 1.393 1.179 2.516 2.64 2.516 1.463 0 2.634-1.123 2.634-2.517 0-1.393-1.171-2.516-2.634-2.516-1.461 0-2.64 1.123-2.64 2.516m-7.047 0c0 1.394 1.18 2.517 2.642 2.517 1.463 0 2.634-1.123 2.634-2.517 0-1.393-1.171-2.516-2.634-2.516-1.461 0-2.642 1.123-2.642 2.516m8.833 4.235s1.737 1.654 1.737 2.895v1.364c0 .405.36.735.806.735h3.67c.446 0 .808-.33.808-.735V21.47c0-1.953-4.113-2.934-6.167-2.934-.255 0-.854.04-.854.04M7.433 21.468v1.364c0 .405.362.735.807.735h10.717c.444 0 .808-.33.808-.735V21.47c0-1.953-4.115-2.934-6.167-2.934-2.054 0-6.165.981-6.165 2.934"/>
            <g transform="translate(7 11)">
                <mask id="29x2yydteb" fill="#fff">
                    <use xlink:href="#no3nx8q0ga"/>
                </mask>
                <path fill="#383535" d="M-8.045 20.201L28.287 20.201 28.287 -7.653 -8.045 -7.653z" mask="url(#29x2yydteb)"/>
                <path fill="#383535" d="M0.432 12.934L19.809 12.934 19.809 0.824 0.432 0.824z" mask="url(#29x2yydteb)"/>
                <path fill="#383535" d="M-13.696 25.962L33.939 25.962 33.939 -12.572 -13.696 -12.572z" mask="url(#29x2yydteb)"/>
            </g>
            <mask id="a9teo8bqdd" fill="#fff">
                <use xlink:href="#uh9fdh8hyc"/>
            </mask>
            <path fill="#383535" d="M17.12.924C7.758.924.167 8.515.167 17.88c0 9.363 7.59 16.955 16.955 16.955 9.364 0 16.955-7.592 16.955-16.955C34.076 8.515 26.485.924 17.12.924m0 2c8.247 0 14.955 6.708 14.955 14.955 0 8.246-6.708 14.955-14.955 14.955-8.246 0-14.955-6.709-14.955-14.955 0-8.247 6.709-14.955 14.955-14.955" mask="url(#a9teo8bqdd)"/>
            <g transform="translate(20 17)">
                <mask id="gbh0mot2yf" fill="#fff">
                    <use xlink:href="#qazqa1v6ue"/>
                </mask>
                <path fill="#FFF" d="M-5.301 26.311L26.187 26.311 26.187 -5.176 -5.301 -5.176z" mask="url(#gbh0mot2yf)"/>
            </g>
            <path fill="#383535" d="M26.434 25.216c-.73 0-1.328.598-1.328 1.328v1.328c0 .731.598 1.328 1.328 1.328h.664v1.992c0 .367.297.664.664.664.366 0 .664-.297.664-.664V29.2h.664l2.314 1.388c.443.266 1.006-.053 1.006-.569v-5.622c0-.517-.563-.835-1.006-.57l-2.314 1.39h-2.656zm9.168-2.782l-.009-.013c-.218-.29-.628-.35-.919-.133-.354.266-.727.546-1.076.81-.29.217-.347.627-.13.917l.008.012c.218.29.627.35.918.133.35-.26.724-.542 1.08-.807.29-.218.345-.629.128-.919zm-2.002 8.89c.35.26.721.538 1.074.803.291.218.701.158.92-.133l.007-.01c.217-.29.16-.702-.13-.919l-1.075-.807c-.29-.218-.702-.154-.92.138l-.009.011c-.217.291-.158.7.133.916zm.802-4.123v.013c0 .363.294.658.657.658H36.4c.364 0 .658-.295.658-.658v-.013c0-.363-.294-.657-.658-.657h-1.34c-.364 0-.658.294-.658.657z"/>
        </g>
    </g>
</svg>
